# xmcd
#
# Track frame offsets:
#	150
#	16786
#	30712
#	43353
#	52626
#	70355
#	87939
#	99335
#	114233
#	131461
#	142160
#	155020
#	164011
#	184488
#	196277
#	223966
#
# Disc length: 4440 seconds
#
# Revision: 1
# Processed by: cddbd v1.4PL0 Copyright (c) Steve Scherf et al.
# Submitted via: audiograbber 1.82.02
#
DISCID=e8115610
DTITLE=The Refreshments - Rock´n Roll X-MAS
DYEAR=1900
DGENRE=Rock and Roll
TTITLE0=RocknRoll X-Mas
TTITLE1=I'm The Real Santa
TTITLE2=Blue Christmas
TTITLE3=Rockin Around The Christmas Tree
TTITLE4=I Can´t Have A Merry Christmas
TTITLE5=The Billy Goat
TTITLE6=I Want A New Baby For Christmas
TTITLE7=Santa Claus Is Back In Town
TTITLE8=Run Rudolph Run
TTITLE9=Pretty Paper
TTITLE10=It´s Not Christmas (In My House)
TTITLE11=Jingle Bell Rock
TTITLE12=The Time I Miss You The Most
TTITLE13=Christmas Time
TTITLE14=White Christmas
TTITLE15=Data Track
EXTD=
EXTT0=
EXTT1=
EXTT2=
EXTT3=
EXTT4=
EXTT5=
EXTT6=
EXTT7=
EXTT8=
EXTT9=
EXTT10=
EXTT11=
EXTT12=
EXTT13=
EXTT14=
EXTT15=
PLAYORDER=
